<svg width="10" height="10" viewBox="0 0 10 10" fill="none" xmlns="http://www.w3.org/2000/svg">
<g opacity="0.5">
<path d="M8.57047 1.26374C8.21518 0.912088 7.63782 0.912088 7.32693 1.26374L4.83986 3.76923L2.35278 1.26374C1.99749 0.912088 1.46454 0.912088 1.10925 1.26374C0.753949 1.61538 0.753949 2.14286 1.10925 2.49451L3.64073 5L1.10925 7.50549C0.753949 7.85714 0.753949 8.38462 1.10925 8.73626C1.28689 8.91209 1.50895 9 1.73101 9C1.95307 9 2.17514 8.91209 2.35278 8.73626L4.83986 6.23077L7.32693 8.73626C7.50458 8.91209 7.72664 9 7.9487 9C8.17076 9 8.39282 8.91209 8.57047 8.73626C8.92577 8.38462 8.92577 7.85714 8.57047 7.50549L6.0834 5L8.61488 2.49451C8.92577 2.14286 8.92577 1.61538 8.57047 1.26374Z" fill="black"/>
</g>
</svg>
